<?xml version="1.0" encoding="UTF-8"?>
<svg xmlns="http://www.w3.org/2000/svg" width="188pt" height="180pt" viewBox="45 50 188 180">
<defs>
  <mask id="dots">
    <rect x="45" y="50" width="188" height="180" fill="white"/>
    <rect x="88.519531" y="132.882812" width="17.328125" height="17.21875" fill="black"/>
    <rect x="130.609375" y="132.882812" width="17.324219" height="17.21875" fill="black"/>
    <rect x="172.703125" y="132.882812" width="17.328125" height="17.21875" fill="black"/>
  </mask>
</defs>
<path mask="url(#dots)" fill-rule="nonzero" fill="rgb(100%, 100%, 100%)" fill-opacity="1" d="M 200.730469 78.003906 L 124.339844 78.003906 L 103.453125 57.121094 L 82.570312 78.003906 L 76.195312 78.003906 C 63.488281 78.003906 53.1875 88.304688 53.1875 101.019531 L 53.1875 178.164062 C 53.1875 190.867188 63.488281 201.179688 76.195312 201.179688 L 149.070312 201.179688 L 170.304688 222.417969 L 191.546875 201.179688 L 200.730469 201.179688 C 213.441406 201.179688 223.75 190.867188 223.75 178.164062 L 223.75 101.019531 C 223.75 88.304688 213.441406 78.003906 200.730469 78.003906 "/>
</svg>
