<?xml version="1.0" encoding="UTF-8"?>
<svg xmlns="http://www.w3.org/2000/svg" width="188pt" height="180pt" viewBox="45 50 188 180">
<path fill-rule="nonzero" fill="rgb(13.000488%, 11.326599%, 11.31134%)" fill-opacity="1" d="M 200.730469 78.003906 L 124.339844 78.003906 L 103.453125 57.121094 L 82.570312 78.003906 L 76.195312 78.003906 C 63.488281 78.003906 53.1875 88.304688 53.1875 101.019531 L 53.1875 178.164062 C 53.1875 190.867188 63.488281 201.179688 76.195312 201.179688 L 149.070312 201.179688 L 170.304688 222.417969 L 191.546875 201.179688 L 200.730469 201.179688 C 213.441406 201.179688 223.75 190.867188 223.75 178.164062 L 223.75 101.019531 C 223.75 88.304688 213.441406 78.003906 200.730469 78.003906 "/>
<path fill-rule="nonzero" fill="rgb(100%, 100%, 100%)" fill-opacity="1" d="M 88.519531 132.882812 L 105.847656 132.882812 L 105.847656 150.101562 L 88.519531 150.101562 Z M 88.519531 132.882812 "/>
<path fill-rule="nonzero" fill="rgb(100%, 100%, 100%)" fill-opacity="1" d="M 130.609375 132.882812 L 147.933594 132.882812 L 147.933594 150.101562 L 130.609375 150.101562 Z M 130.609375 132.882812 "/>
<path fill-rule="nonzero" fill="rgb(100%, 100%, 100%)" fill-opacity="1" d="M 172.703125 132.882812 L 190.03125 132.882812 L 190.03125 150.101562 L 172.703125 150.101562 Z M 172.703125 132.882812 "/>
<path fill-rule="nonzero" fill="rgb(13.000488%, 11.326599%, 11.31134%)" fill-opacity="1" d="M 526.984375 150.101562 L 509.65625 150.101562 L 509.65625 132.882812 L 526.984375 132.882812 Z M 484.890625 150.101562 L 467.566406 150.101562 L 467.566406 132.882812 L 484.890625 132.882812 Z M 442.804688 150.101562 L 425.476562 150.101562 L 425.476562 132.882812 L 442.804688 132.882812 Z M 537.6875 78.003906 L 461.296875 78.003906 L 440.40625 57.121094 L 419.527344 78.003906 L 413.152344 78.003906 C 400.445312 78.003906 390.144531 88.304688 390.144531 101.019531 L 390.144531 178.164062 C 390.144531 190.867188 400.445312 201.179688 413.152344 201.179688 L 486.023438 201.179688 L 507.261719 222.417969 L 528.5 201.179688 L 537.6875 201.179688 C 550.398438 201.179688 560.703125 190.867188 560.703125 178.164062 L 560.703125 101.019531 C 560.703125 88.304688 550.398438 78.003906 537.6875 78.003906 "/>
<path fill-rule="nonzero" fill="rgb(13.000488%, 11.326599%, 11.31134%)" fill-opacity="1" d="M 135.539062 381.175781 L 119.894531 381.175781 L 115.617188 376.902344 L 111.339844 381.175781 L 110.035156 381.175781 C 107.433594 381.175781 105.320312 383.289062 105.320312 385.890625 L 105.320312 401.691406 C 105.320312 404.292969 107.433594 406.40625 110.035156 406.40625 L 124.957031 406.40625 L 129.308594 410.753906 L 133.65625 406.40625 L 135.539062 406.40625 C 138.144531 406.40625 140.253906 404.292969 140.253906 401.691406 L 140.253906 385.890625 C 140.253906 383.289062 138.144531 381.175781 135.539062 381.175781 "/>
<path fill-rule="nonzero" fill="rgb(100%, 100%, 100%)" fill-opacity="1" d="M 112.558594 392.417969 L 116.105469 392.417969 L 116.105469 395.941406 L 112.558594 395.941406 Z M 112.558594 392.417969 "/>
<path fill-rule="nonzero" fill="rgb(100%, 100%, 100%)" fill-opacity="1" d="M 121.179688 392.417969 L 124.726562 392.417969 L 124.726562 395.941406 L 121.179688 395.941406 Z M 121.179688 392.417969 "/>
<path fill-rule="nonzero" fill="rgb(100%, 100%, 100%)" fill-opacity="1" d="M 129.796875 392.417969 L 133.347656 392.417969 L 133.347656 395.941406 L 129.796875 395.941406 Z M 129.796875 392.417969 "/>
<path fill-rule="nonzero" fill="rgb(13.000488%, 11.326599%, 11.31134%)" fill-opacity="1" d="M 105.8125 450.566406 L 105.8125 418.171875 L 114.164062 418.171875 L 114.164062 443.28125 L 127.183594 443.28125 L 127.183594 450.566406 Z M 105.8125 450.566406 "/>
<path fill-rule="nonzero" fill="rgb(13.000488%, 11.326599%, 11.31134%)" fill-opacity="1" d="M 158.347656 434.394531 C 158.347656 429.097656 154.898438 425.019531 149.558594 425.019531 C 144.214844 425.019531 140.71875 429.097656 140.71875 434.394531 C 140.71875 439.636719 144.214844 443.765625 149.558594 443.765625 C 154.898438 443.765625 158.347656 439.636719 158.347656 434.394531 M 132.21875 434.394531 C 132.21875 424.535156 139.648438 417.636719 149.558594 417.636719 C 159.464844 417.636719 166.847656 424.535156 166.847656 434.394531 C 166.847656 444.253906 159.464844 451.148438 149.558594 451.148438 C 139.648438 451.148438 132.21875 444.253906 132.21875 434.394531 "/>
<path fill-rule="nonzero" fill="rgb(13.000488%, 11.326599%, 11.31134%)" fill-opacity="1" d="M 195.382812 450.566406 L 181.6875 431.820312 L 181.6875 450.566406 L 173.332031 450.566406 L 173.332031 418.171875 L 181.929688 418.171875 L 195.042969 435.996094 L 195.042969 418.171875 L 203.445312 418.171875 L 203.445312 450.566406 Z M 195.382812 450.566406 "/>
<path fill-rule="nonzero" fill="rgb(13.000488%, 11.326599%, 11.31134%)" fill-opacity="1" d="M 235.347656 434.34375 C 235.347656 429.339844 232.339844 425.457031 226.410156 425.457031 L 221.117188 425.457031 L 221.117188 443.28125 L 226.363281 443.28125 C 232.046875 443.28125 235.347656 439.152344 235.347656 434.34375 M 212.765625 450.566406 L 212.765625 418.171875 L 226.363281 418.171875 C 236.5625 418.171875 243.898438 424.289062 243.898438 434.34375 C 243.898438 444.398438 236.5625 450.566406 226.410156 450.566406 Z M 212.765625 450.566406 "/>
<path fill-rule="nonzero" fill="rgb(13.000488%, 11.326599%, 11.31134%)" fill-opacity="1" d="M 274.84375 434.394531 C 274.84375 429.097656 271.398438 425.019531 266.054688 425.019531 C 260.710938 425.019531 257.214844 429.097656 257.214844 434.394531 C 257.214844 439.636719 260.710938 443.765625 266.054688 443.765625 C 271.398438 443.765625 274.84375 439.636719 274.84375 434.394531 M 248.714844 434.394531 C 248.714844 424.535156 256.144531 417.636719 266.054688 417.636719 C 275.960938 417.636719 283.34375 424.535156 283.34375 434.394531 C 283.34375 444.253906 275.960938 451.148438 266.054688 451.148438 C 256.144531 451.148438 248.714844 444.253906 248.714844 434.394531 "/>
<path fill-rule="nonzero" fill="rgb(13.000488%, 11.326599%, 11.31134%)" fill-opacity="1" d="M 311.964844 450.566406 L 298.265625 431.820312 L 298.265625 450.566406 L 289.914062 450.566406 L 289.914062 418.171875 L 298.507812 418.171875 L 311.625 435.996094 L 311.625 418.171875 L 320.027344 418.171875 L 320.027344 450.566406 Z M 311.964844 450.566406 "/>
<path fill-rule="nonzero" fill="rgb(13.000488%, 11.326599%, 11.31134%)" fill-opacity="1" d="M 350.308594 440.511719 C 350.308594 438.910156 349.144531 437.792969 347.101562 437.792969 L 338.699219 437.792969 L 338.699219 443.28125 L 347.101562 443.28125 C 349.09375 443.28125 350.308594 442.261719 350.308594 440.511719 M 349.675781 427.984375 C 349.675781 426.425781 348.507812 425.457031 346.8125 425.457031 L 338.699219 425.457031 L 338.699219 430.507812 L 346.8125 430.507812 C 348.507812 430.507812 349.675781 429.585938 349.675781 427.984375 M 330.34375 450.566406 L 330.34375 418.171875 L 348.703125 418.171875 C 355.164062 418.171875 358.175781 422.347656 358.175781 426.425781 C 358.175781 430.457031 355.699219 433.179688 352.636719 433.859375 C 356.085938 434.394531 358.804688 437.695312 358.804688 441.777344 C 358.804688 446.488281 355.652344 450.566406 349.289062 450.566406 Z M 330.34375 450.566406 "/>
<path fill-rule="nonzero" fill="rgb(13.000488%, 11.326599%, 11.31134%)" fill-opacity="1" d="M 368.128906 450.566406 L 368.128906 418.171875 L 391.878906 418.171875 L 391.878906 425.457031 L 376.484375 425.457031 L 376.484375 430.507812 L 391.539062 430.507812 L 391.539062 437.792969 L 376.484375 437.792969 L 376.484375 443.28125 L 391.878906 443.28125 L 391.878906 450.566406 Z M 368.128906 450.566406 "/>
<path fill-rule="nonzero" fill="rgb(13.000488%, 11.326599%, 11.31134%)" fill-opacity="1" d="M 421.191406 428.90625 C 421.191406 426.671875 419.390625 425.457031 417.160156 425.457031 L 410.550781 425.457031 L 410.550781 432.402344 L 417.160156 432.402344 C 419.390625 432.402344 421.191406 431.1875 421.191406 428.90625 M 420.265625 450.566406 L 414.828125 439.6875 L 410.550781 439.6875 L 410.550781 450.566406 L 402.199219 450.566406 L 402.199219 418.171875 L 418.421875 418.171875 C 425.609375 418.171875 429.691406 422.929688 429.691406 428.953125 C 429.691406 434.585938 426.289062 437.597656 423.226562 438.667969 L 429.835938 450.566406 Z M 420.265625 450.566406 "/>
<path fill-rule="nonzero" fill="rgb(13.000488%, 11.326599%, 11.31134%)" fill-opacity="1" d="M 458.144531 428.90625 C 458.144531 426.671875 456.347656 425.457031 454.113281 425.457031 L 447.507812 425.457031 L 447.507812 432.402344 L 454.113281 432.402344 C 456.347656 432.402344 458.144531 431.1875 458.144531 428.90625 M 457.222656 450.566406 L 451.78125 439.6875 L 447.507812 439.6875 L 447.507812 450.566406 L 439.15625 450.566406 L 439.15625 418.171875 L 455.375 418.171875 C 462.566406 418.171875 466.644531 422.929688 466.644531 428.953125 C 466.644531 434.585938 463.246094 437.597656 460.183594 438.667969 L 466.789062 450.566406 Z M 457.222656 450.566406 "/>
<path fill-rule="nonzero" fill="rgb(13.000488%, 11.326599%, 11.31134%)" fill-opacity="1" d="M 483.082031 450.566406 L 483.082031 437.5 L 470.792969 418.171875 L 480.214844 418.171875 L 487.257812 430.121094 L 494.203125 418.171875 L 503.675781 418.171875 L 491.4375 437.5 L 491.4375 450.566406 Z M 483.082031 450.566406 "/>
<path fill-rule="nonzero" fill="rgb(13.000488%, 11.326599%, 11.31134%)" fill-opacity="1" d="M 133.347656 635.507812 L 129.796875 635.507812 L 129.796875 631.980469 L 133.347656 631.980469 Z M 124.726562 635.507812 L 121.179688 635.507812 L 121.179688 631.980469 L 124.726562 631.980469 Z M 116.105469 635.507812 L 112.558594 635.507812 L 112.558594 631.980469 L 116.105469 631.980469 Z M 135.539062 620.738281 L 119.894531 620.738281 L 115.617188 616.464844 L 111.339844 620.738281 L 110.035156 620.738281 C 107.433594 620.738281 105.320312 622.851562 105.320312 625.453125 L 105.320312 641.253906 C 105.320312 643.855469 107.433594 645.964844 110.035156 645.964844 L 124.957031 645.964844 L 129.308594 650.316406 L 133.65625 645.964844 L 135.539062 645.964844 C 138.140625 645.964844 140.253906 643.855469 140.253906 641.253906 L 140.253906 625.453125 C 140.253906 622.851562 138.140625 620.738281 135.539062 620.738281 "/>
<path fill-rule="nonzero" fill="rgb(13.000488%, 11.326599%, 11.31134%)" fill-opacity="1" d="M 105.8125 690.128906 L 105.8125 657.730469 L 114.164062 657.730469 L 114.164062 682.84375 L 127.183594 682.84375 L 127.183594 690.128906 Z M 105.8125 690.128906 "/>
<path fill-rule="nonzero" fill="rgb(13.000488%, 11.326599%, 11.31134%)" fill-opacity="1" d="M 158.347656 673.953125 C 158.347656 668.660156 154.898438 664.582031 149.558594 664.582031 C 144.214844 664.582031 140.71875 668.660156 140.71875 673.953125 C 140.71875 679.199219 144.214844 683.328125 149.558594 683.328125 C 154.898438 683.328125 158.347656 679.199219 158.347656 673.953125 M 132.21875 673.953125 C 132.21875 664.09375 139.648438 657.199219 149.558594 657.199219 C 159.464844 657.199219 166.847656 664.09375 166.847656 673.953125 C 166.847656 683.8125 159.464844 690.710938 149.558594 690.710938 C 139.648438 690.710938 132.21875 683.8125 132.21875 673.953125 "/>
<path fill-rule="nonzero" fill="rgb(13.000488%, 11.326599%, 11.31134%)" fill-opacity="1" d="M 195.382812 690.128906 L 181.6875 671.382812 L 181.6875 690.128906 L 173.332031 690.128906 L 173.332031 657.730469 L 181.929688 657.730469 L 195.042969 675.558594 L 195.042969 657.730469 L 203.445312 657.730469 L 203.445312 690.128906 Z M 195.382812 690.128906 "/>
<path fill-rule="nonzero" fill="rgb(13.000488%, 11.326599%, 11.31134%)" fill-opacity="1" d="M 235.347656 673.90625 C 235.347656 668.902344 232.339844 665.015625 226.410156 665.015625 L 221.117188 665.015625 L 221.117188 682.84375 L 226.363281 682.84375 C 232.046875 682.84375 235.347656 678.714844 235.347656 673.90625 M 212.765625 690.128906 L 212.765625 657.730469 L 226.363281 657.730469 C 236.5625 657.730469 243.898438 663.851562 243.898438 673.90625 C 243.898438 683.960938 236.5625 690.128906 226.410156 690.128906 Z M 212.765625 690.128906 "/>
<path fill-rule="nonzero" fill="rgb(13.000488%, 11.326599%, 11.31134%)" fill-opacity="1" d="M 274.84375 673.953125 C 274.84375 668.660156 271.398438 664.582031 266.054688 664.582031 C 260.710938 664.582031 257.214844 668.660156 257.214844 673.953125 C 257.214844 679.199219 260.710938 683.328125 266.054688 683.328125 C 271.398438 683.328125 274.84375 679.199219 274.84375 673.953125 M 248.714844 673.953125 C 248.714844 664.09375 256.144531 657.199219 266.054688 657.199219 C 275.960938 657.199219 283.34375 664.09375 283.34375 673.953125 C 283.34375 683.8125 275.960938 690.710938 266.054688 690.710938 C 256.144531 690.710938 248.714844 683.8125 248.714844 673.953125 "/>
<path fill-rule="nonzero" fill="rgb(13.000488%, 11.326599%, 11.31134%)" fill-opacity="1" d="M 311.964844 690.128906 L 298.265625 671.382812 L 298.265625 690.128906 L 289.914062 690.128906 L 289.914062 657.730469 L 298.507812 657.730469 L 311.625 675.558594 L 311.625 657.730469 L 320.027344 657.730469 L 320.027344 690.128906 Z M 311.964844 690.128906 "/>
<path fill-rule="nonzero" fill="rgb(13.000488%, 11.326599%, 11.31134%)" fill-opacity="1" d="M 350.308594 680.074219 C 350.308594 678.472656 349.144531 677.355469 347.101562 677.355469 L 338.699219 677.355469 L 338.699219 682.84375 L 347.101562 682.84375 C 349.09375 682.84375 350.308594 681.820312 350.308594 680.074219 M 349.675781 667.542969 C 349.675781 665.988281 348.507812 665.015625 346.8125 665.015625 L 338.699219 665.015625 L 338.699219 670.070312 L 346.8125 670.070312 C 348.507812 670.070312 349.675781 669.144531 349.675781 667.542969 M 330.34375 690.128906 L 330.34375 657.730469 L 348.703125 657.730469 C 355.164062 657.730469 358.175781 661.910156 358.175781 665.988281 C 358.175781 670.019531 355.699219 672.738281 352.636719 673.421875 C 356.085938 673.953125 358.804688 677.257812 358.804688 681.335938 C 358.804688 686.046875 355.652344 690.128906 349.289062 690.128906 Z M 330.34375 690.128906 "/>
<path fill-rule="nonzero" fill="rgb(13.000488%, 11.326599%, 11.31134%)" fill-opacity="1" d="M 368.128906 690.128906 L 368.128906 657.730469 L 391.878906 657.730469 L 391.878906 665.019531 L 376.484375 665.019531 L 376.484375 670.070312 L 391.539062 670.070312 L 391.539062 677.355469 L 376.484375 677.355469 L 376.484375 682.84375 L 391.878906 682.84375 L 391.878906 690.128906 Z M 368.128906 690.128906 "/>
<path fill-rule="nonzero" fill="rgb(13.000488%, 11.326599%, 11.31134%)" fill-opacity="1" d="M 421.191406 668.464844 C 421.191406 666.234375 419.390625 665.019531 417.160156 665.019531 L 410.550781 665.019531 L 410.550781 671.960938 L 417.160156 671.960938 C 419.390625 671.960938 421.191406 670.75 421.191406 668.464844 M 420.265625 690.128906 L 414.828125 679.25 L 410.550781 679.25 L 410.550781 690.128906 L 402.199219 690.128906 L 402.199219 657.734375 L 418.421875 657.734375 C 425.609375 657.734375 429.691406 662.492188 429.691406 668.515625 C 429.691406 674.148438 426.289062 677.160156 423.226562 678.230469 L 429.835938 690.128906 Z M 420.265625 690.128906 "/>
<path fill-rule="nonzero" fill="rgb(13.000488%, 11.326599%, 11.31134%)" fill-opacity="1" d="M 458.144531 668.464844 C 458.144531 666.234375 456.347656 665.019531 454.113281 665.019531 L 447.507812 665.019531 L 447.507812 671.960938 L 454.113281 671.960938 C 456.347656 671.960938 458.144531 670.75 458.144531 668.464844 M 457.222656 690.128906 L 451.78125 679.25 L 447.507812 679.25 L 447.507812 690.128906 L 439.15625 690.128906 L 439.15625 657.734375 L 455.375 657.734375 C 462.566406 657.734375 466.644531 662.492188 466.644531 668.515625 C 466.644531 674.148438 463.246094 677.160156 460.183594 678.230469 L 466.789062 690.128906 Z M 457.222656 690.128906 "/>
<path fill-rule="nonzero" fill="rgb(13.000488%, 11.326599%, 11.31134%)" fill-opacity="1" d="M 483.082031 690.128906 L 483.082031 677.0625 L 470.792969 657.730469 L 480.214844 657.730469 L 487.257812 669.679688 L 494.203125 657.730469 L 503.675781 657.730469 L 491.4375 677.0625 L 491.4375 690.128906 Z M 483.082031 690.128906 "/>

</svg>